<svg xmlns="http://www.w3.org/2000/svg" version="1.1" xmlns:xlink="http://www.w3.org/1999/xlink" xmlns:svgjs="http://svgjs.dev/svgjs" viewBox="0 0 9.347100833520422 9.15510054854685"><g transform="matrix(1,0,0,1,0.7708752458617738,6.131975302685076)"><rect width="9.347100833520422" height="9.15510054854685" x="-0.7708752458617736" y="-6.131975302685076" fill="#efe0e2"></rect><g><path d=" M 1.1391075439453122 1.1099999999999999 Q 1.0971075439453122 1.1099999999999999 1.070857543945312 1.0837499999999998 Q 1.0446075439453122 1.0574999999999999 1.0446075439453122 1.0185 L 1.0446075439453122 0.15149999999999986 Q 1.0446075439453122 0.11249999999999982 1.070857543945312 0.08624999999999994 Q 1.0971075439453122 0.05999999999999983 1.136107543945312 0.05999999999999983 L 1.6236075439453121 0.05999999999999983 Q 1.6626075439453123 0.05999999999999983 1.6888575439453122 0.08474999999999988 Q 1.715107543945312 0.10949999999999993 1.715107543945312 0.14849999999999985 Q 1.715107543945312 0.18149999999999988 1.6888575439453122 0.20699999999999985 Q 1.6626075439453123 0.23249999999999982 1.6236075439453121 0.23249999999999982 L 1.2186075439453121 0.23249999999999982 L 1.2321075439453122 0.2144999999999998 L 1.2321075439453122 0.5159999999999999 L 1.221607543945312 0.49649999999999983 L 1.5561075439453123 0.49649999999999983 Q 1.5951075439453122 0.49649999999999983 1.621357543945312 0.5212499999999999 Q 1.6476075439453122 0.5459999999999998 1.6476075439453122 0.5849999999999999 Q 1.6476075439453122 0.6179999999999999 1.621357543945312 0.6434999999999998 Q 1.5951075439453122 0.6689999999999998 1.5561075439453123 0.6689999999999998 L 1.2186075439453121 0.6689999999999998 L 1.2321075439453122 0.6554999999999999 L 1.2321075439453122 1.0185 Q 1.2321075439453122 1.0574999999999999 1.2043575439453122 1.0837499999999998 Q 1.176607543945312 1.1099999999999999 1.1391075439453122 1.1099999999999999 Z M 2.124533569335937 1.1099999999999999 Q 2.0825335693359373 1.1099999999999999 2.055533569335937 1.0837499999999998 Q 2.0285335693359374 1.0574999999999999 2.0285335693359374 1.0185 L 2.0285335693359374 0.26249999999999984 L 2.0495335693359373 0.2954999999999999 L 1.9355335693359372 0.3644999999999998 Q 1.9130335693359373 0.3779999999999999 1.8875335693359372 0.3779999999999999 Q 1.8485335693359373 0.3779999999999999 1.8230335693359372 0.3487499999999999 Q 1.7975335693359373 0.3194999999999999 1.7975335693359373 0.28649999999999987 Q 1.7975335693359373 0.23549999999999982 1.8440335693359373 0.2084999999999999 L 2.0705335693359372 0.0734999999999999 Q 2.0960335693359373 0.05999999999999983 2.1350335693359375 0.05999999999999983 Q 2.174033569335937 0.05999999999999983 2.198783569335937 0.08624999999999994 Q 2.2235335693359373 0.11249999999999982 2.2235335693359373 0.15149999999999986 L 2.2235335693359373 1.0185 Q 2.2235335693359373 1.0574999999999999 2.195783569335937 1.0837499999999998 Q 2.1680335693359374 1.1099999999999999 2.124533569335937 1.1099999999999999 Z M 2.497962524414062 1.3499999999999999 Q 2.4664625244140623 1.3499999999999999 2.4462125244140625 1.3297499999999998 Q 2.4259625244140626 1.3094999999999999 2.4259625244140626 1.2794999999999999 Q 2.4259625244140626 1.2494999999999998 2.4462125244140625 1.22925 Q 2.4664625244140623 1.2089999999999999 2.497962524414062 1.2089999999999999 L 3.259962524414062 1.2089999999999999 Q 3.2914625244140625 1.2089999999999999 3.3117125244140624 1.22925 Q 3.3319625244140623 1.2494999999999998 3.3319625244140623 1.281 Q 3.3319625244140623 1.311 3.3117125244140624 1.3304999999999998 Q 3.2914625244140625 1.3499999999999999 3.259962524414062 1.3499999999999999 L 2.497962524414062 1.3499999999999999 Z M 3.7789317626953123 1.1249999999999998 Q 3.6934317626953126 1.1249999999999998 3.6199317626953125 1.0904999999999998 Q 3.5464317626953124 1.0559999999999998 3.4999317626953124 0.9914999999999998 Q 3.4819317626953126 0.9644999999999999 3.4819317626953126 0.9389999999999998 Q 3.4819317626953126 0.9014999999999999 3.5111817626953123 0.8759999999999999 Q 3.5404317626953126 0.8504999999999998 3.5689317626953123 0.8504999999999998 Q 3.5914317626953127 0.8504999999999998 3.6131817626953127 0.8639999999999999 Q 3.6349317626953126 0.8774999999999998 3.6529317626953124 0.8954999999999999 Q 3.6829317626953126 0.9224999999999999 3.7121817626953124 0.9337499999999999 Q 3.7414317626953126 0.9449999999999998 3.7789317626953123 0.9449999999999998 Q 3.8239317626953127 0.9449999999999998 3.8629317626953124 0.9224999999999999 Q 3.9019317626953125 0.8999999999999999 3.9259317626953125 0.8624999999999998 Q 3.9499317626953125 0.8249999999999998 3.9499317626953125 0.7814999999999999 L 3.9499317626953125 0.15149999999999986 Q 3.9499317626953125 0.11249999999999982 3.9784317626953127 0.08624999999999994 Q 4.006931762695313 0.05999999999999983 4.044431762695313 0.05999999999999983 Q 4.086431762695312 0.05999999999999983 4.1119317626953125 0.08624999999999994 Q 4.1374317626953125 0.11249999999999982 4.1374317626953125 0.15149999999999986 L 4.1374317626953125 0.7814999999999999 Q 4.1374317626953125 0.8729999999999999 4.0894317626953125 0.9509999999999998 Q 4.0414317626953125 1.029 3.9604317626953125 1.077 Q 3.8794317626953125 1.1249999999999998 3.7789317626953123 1.1249999999999998 Z M 5.133343139648438 0.7094999999999998 Q 5.133343139648438 0.8324999999999998 5.078593139648437 0.9262499999999999 Q 5.023843139648438 1.0199999999999998 4.931593139648438 1.0724999999999998 Q 4.839343139648438 1.1249999999999998 4.725343139648437 1.1249999999999998 Q 4.6113431396484375 1.1249999999999998 4.5190931396484375 1.0724999999999998 Q 4.426843139648438 1.0199999999999998 4.372093139648437 0.9262499999999999 Q 4.317343139648438 0.8324999999999998 4.317343139648438 0.7094999999999998 Q 4.317343139648438 0.5864999999999999 4.372093139648437 0.4927499999999999 Q 4.426843139648438 0.3989999999999999 4.5190931396484375 0.3457499999999999 Q 4.6113431396484375 0.29249999999999987 4.725343139648437 0.29249999999999987 Q 4.839343139648438 0.29249999999999987 4.931593139648438 0.3457499999999999 Q 5.023843139648438 0.3989999999999999 5.078593139648437 0.4927499999999999 Q 5.133343139648438 0.5864999999999999 5.133343139648438 0.7094999999999998 Z M 4.953343139648438 0.7094999999999998 Q 4.953343139648438 0.6329999999999998 4.922593139648438 0.5767499999999999 Q 4.891843139648437 0.5204999999999999 4.840093139648438 0.4889999999999999 Q 4.788343139648438 0.4574999999999999 4.725343139648437 0.4574999999999999 Q 4.662343139648438 0.4574999999999999 4.610593139648437 0.4889999999999999 Q 4.558843139648437 0.5204999999999999 4.528093139648438 0.5767499999999999 Q 4.497343139648438 0.6329999999999998 4.497343139648438 0.7094999999999998 Q 4.497343139648438 0.7844999999999999 4.528093139648438 0.8407499999999999 Q 4.558843139648437 0.8969999999999999 4.610593139648437 0.9284999999999999 Q 4.662343139648438 0.9599999999999999 4.725343139648437 0.9599999999999999 Q 4.788343139648438 0.9599999999999999 4.840093139648438 0.9284999999999999 Q 4.891843139648437 0.8969999999999999 4.922593139648438 0.8407499999999999 Q 4.953343139648438 0.7844999999999999 4.953343139648438 0.7094999999999998 Z M 5.713772094726562 0.29249999999999987 Q 5.818772094726563 0.29249999999999987 5.902022094726562 0.3457499999999999 Q 5.985272094726563 0.3989999999999999 6.034022094726563 0.4919999999999999 Q 6.082772094726562 0.5849999999999999 6.082772094726562 0.7079999999999999 Q 6.082772094726562 0.8309999999999998 6.034022094726563 0.9247499999999998 Q 5.985272094726563 1.0185 5.903522094726562 1.07175 Q 5.821772094726562 1.1249999999999998 5.7197720947265625 1.1249999999999998 Q 5.659772094726562 1.1249999999999998 5.607272094726563 1.1055 Q 5.554772094726562 1.0859999999999999 5.515022094726563 1.0559999999999998 Q 5.475272094726562 1.0259999999999998 5.453522094726562 0.9952499999999999 Q 5.431772094726562 0.9644999999999999 5.431772094726562 0.9434999999999999 L 5.478272094726562 0.9239999999999999 L 5.478272094726562 1.0334999999999999 Q 5.478272094726562 1.0724999999999998 5.452772094726562 1.09875 Q 5.427272094726562 1.1249999999999998 5.388272094726562 1.1249999999999998 Q 5.349272094726563 1.1249999999999998 5.3237720947265625 1.0995 Q 5.2982720947265625 1.0739999999999998 5.2982720947265625 1.0334999999999999 L 5.2982720947265625 0.09149999999999991 Q 5.2982720947265625 0.05249999999999977 5.3237720947265625 0.026249999999999885 Q 5.349272094726563 -2.220446049250313e-16 5.388272094726562 -2.220446049250313e-16 Q 5.427272094726562 -2.220446049250313e-16 5.452772094726562 0.026249999999999885 Q 5.478272094726562 0.05249999999999977 5.478272094726562 0.09149999999999991 L 5.478272094726562 0.4724999999999998 L 5.452772094726562 0.45899999999999985 Q 5.452772094726562 0.4394999999999999 5.473772094726562 0.41174999999999984 Q 5.494772094726562 0.3839999999999999 5.530772094726562 0.35624999999999984 Q 5.566772094726562 0.3284999999999999 5.614022094726562 0.3104999999999999 Q 5.661272094726562 0.29249999999999987 5.713772094726562 0.29249999999999987 Z M 5.691272094726562 0.4574999999999999 Q 5.625272094726562 0.4574999999999999 5.575772094726562 0.4904999999999998 Q 5.526272094726562 0.5234999999999999 5.498522094726562 0.5797499999999999 Q 5.470772094726563 0.6359999999999999 5.470772094726563 0.7079999999999999 Q 5.470772094726563 0.7784999999999999 5.498522094726562 0.8362499999999999 Q 5.526272094726562 0.8939999999999999 5.575772094726562 0.9269999999999998 Q 5.625272094726562 0.9599999999999999 5.691272094726562 0.9599999999999999 Q 5.757272094726562 0.9599999999999999 5.806022094726562 0.9269999999999998 Q 5.854772094726562 0.8939999999999999 5.882522094726562 0.8362499999999999 Q 5.910272094726563 0.7784999999999999 5.910272094726563 0.7079999999999999 Q 5.910272094726563 0.6359999999999999 5.882522094726562 0.5797499999999999 Q 5.854772094726562 0.5234999999999999 5.806022094726562 0.4904999999999998 Q 5.757272094726562 0.4574999999999999 5.691272094726562 0.4574999999999999 Z M 6.201250854492187 0.9854999999999998 Q 6.186250854492187 0.9644999999999999 6.187750854492187 0.9314999999999999 Q 6.189250854492187 0.8984999999999999 6.226750854492187 0.8744999999999998 Q 6.250750854492187 0.8594999999999999 6.277750854492187 0.8617499999999999 Q 6.304750854492187 0.8639999999999999 6.330250854492187 0.8894999999999998 Q 6.373750854492187 0.9329999999999998 6.421750854492187 0.9569999999999999 Q 6.469750854492187 0.9809999999999999 6.541750854492187 0.9809999999999999 Q 6.564250854492187 0.9794999999999998 6.591250854492187 0.9742499999999998 Q 6.618250854492187 0.9689999999999999 6.638500854492187 0.9502499999999998 Q 6.658750854492187 0.9314999999999999 6.658750854492187 0.8924999999999998 Q 6.658750854492187 0.8594999999999999 6.636250854492187 0.8399999999999999 Q 6.613750854492187 0.8204999999999999 6.577000854492187 0.8069999999999999 Q 6.540250854492187 0.7934999999999999 6.495250854492187 0.7814999999999999 Q 6.448750854492187 0.7679999999999998 6.400000854492187 0.7514999999999998 Q 6.351250854492187 0.7349999999999999 6.310750854492187 0.7087499999999999 Q 6.270250854492187 0.6824999999999999 6.244750854492187 0.6389999999999998 Q 6.219250854492187 0.5954999999999999 6.219250854492187 0.5294999999999999 Q 6.219250854492187 0.4544999999999999 6.261250854492187 0.4019999999999999 Q 6.303250854492187 0.3494999999999998 6.370000854492187 0.32099999999999984 Q 6.436750854492187 0.29249999999999987 6.510250854492187 0.29249999999999987 Q 6.556750854492187 0.29249999999999987 6.607750854492187 0.30374999999999985 Q 6.658750854492187 0.31499999999999984 6.705250854492187 0.3397499999999999 Q 6.751750854492187 0.3644999999999998 6.783250854492187 0.4049999999999999 Q 6.799750854492187 0.4274999999999999 6.802750854492187 0.45899999999999985 Q 6.805750854492187 0.4904999999999998 6.774250854492187 0.5159999999999999 Q 6.751750854492187 0.5339999999999998 6.721750854492187 0.5317499999999998 Q 6.691750854492187 0.5294999999999999 6.672250854492187 0.5114999999999998 Q 6.646750854492187 0.4784999999999998 6.604000854492187 0.45899999999999985 Q 6.561250854492187 0.4394999999999999 6.505750854492187 0.4394999999999999 Q 6.483250854492187 0.4394999999999999 6.457000854492187 0.44474999999999987 Q 6.430750854492187 0.44999999999999984 6.411250854492187 0.46724999999999983 Q 6.391750854492187 0.4844999999999998 6.391750854492187 0.5219999999999999 Q 6.391750854492187 0.5564999999999999 6.414250854492187 0.5767499999999999 Q 6.436750854492187 0.5969999999999999 6.475000854492187 0.6097499999999999 Q 6.5132508544921865 0.6224999999999998 6.556750854492187 0.6344999999999998 Q 6.601750854492187 0.6464999999999999 6.648250854492187 0.6629999999999998 Q 6.694750854492187 0.6794999999999999 6.733750854492187 0.7064999999999999 Q 6.7727508544921875 0.7334999999999998 6.796750854492187 0.7762499999999999 Q 6.820750854492187 0.819 6.820750854492187 0.8849999999999999 Q 6.820750854492187 0.9614999999999999 6.775750854492187 1.0154999999999998 Q 6.730750854492187 1.0695 6.663250854492187 1.0972499999999998 Q 6.595750854492187 1.1249999999999998 6.525250854492187 1.1249999999999998 Q 6.436750854492187 1.1249999999999998 6.348250854492187 1.09425 Q 6.259750854492187 1.0635 6.201250854492187 0.9854999999999998 Z" fill="#382d5e" fill-rule="nonzero"></path></g><g><path d=" M 0.09675 2.1022499999999997 Q 0.08325 2.1022499999999997 0.074625 2.09325 Q 0.066 2.08425 0.066 2.0715 L 0.066 1.6072499999999996 Q 0.066 1.5944999999999996 0.074625 1.5858749999999997 Q 0.08325 1.5772499999999998 0.096 1.5772499999999998 L 0.35925 1.5772499999999998 Q 0.372 1.5772499999999998 0.381 1.5854999999999997 Q 0.39 1.5937499999999996 0.39 1.6064999999999996 Q 0.39 1.6184999999999996 0.381 1.6267499999999997 Q 0.372 1.6349999999999998 0.35925 1.6349999999999998 L 0.123 1.6349999999999998 L 0.1275 1.6289999999999998 L 0.1275 1.8127499999999999 L 0.12375 1.8044999999999998 L 0.3255 1.8044999999999998 Q 0.33825 1.8044999999999998 0.34725 1.8131249999999997 Q 0.35625 1.8217499999999998 0.35625 1.8344999999999998 Q 0.35625 1.8457499999999998 0.34725 1.8543749999999997 Q 0.33825 1.8629999999999998 0.3255 1.8629999999999998 L 0.12225 1.8629999999999998 L 0.1275 1.8562499999999997 L 0.1275 2.0715 Q 0.1275 2.08425 0.11850000000000001 2.09325 Q 0.1095 2.1022499999999997 0.09675 2.1022499999999997 Z M 0.5444560546875 2.0715 Q 0.5444560546875 2.08425 0.5358310546875 2.09325 Q 0.5272060546875 2.1022499999999997 0.5144560546875 2.1022499999999997 Q 0.5009560546875 2.1022499999999997 0.4927060546875 2.09325 Q 0.4844560546875 2.08425 0.4844560546875 2.0715 L 0.4844560546875 1.7384999999999997 Q 0.4844560546875 1.7257499999999997 0.4930810546875 1.7171249999999998 Q 0.5017060546875001 1.7084999999999997 0.5144560546875 1.7084999999999997 Q 0.5272060546875 1.7084999999999997 0.5358310546875 1.7171249999999998 Q 0.5444560546875 1.7257499999999997 0.5444560546875 1.7384999999999997 L 0.5444560546875 2.0715 Z M 0.5144560546875 1.6582499999999998 Q 0.4957060546875 1.6582499999999998 0.4867060546875 1.6507499999999997 Q 0.4777060546875 1.6432499999999997 0.4777060546875 1.6274999999999997 L 0.4777060546875 1.6169999999999998 Q 0.4777060546875 1.6012499999999998 0.48745605468750003 1.5937499999999996 Q 0.4972060546875 1.5862499999999997 0.5152060546875 1.5862499999999997 Q 0.5332060546875 1.5862499999999997 0.5422060546875 1.5937499999999996 Q 0.5512060546875 1.6012499999999998 0.5512060546875 1.6169999999999998 L 0.5512060546875 1.6274999999999997 Q 0.5512060546875 1.6432499999999997 0.5418310546875 1.6507499999999997 Q 0.5324560546875 1.6582499999999998 0.5144560546875 1.6582499999999998 Z M 0.85266650390625 1.7047499999999998 Q 0.90366650390625 1.7047499999999998 0.93291650390625 1.7257499999999997 Q 0.96216650390625 1.7467499999999998 0.9745415039062499 1.7819999999999998 Q 0.98691650390625 1.8172499999999996 0.98691650390625 1.8607499999999997 L 0.98691650390625 2.0715 Q 0.98691650390625 2.08425 0.9782915039062501 2.09325 Q 0.96966650390625 2.1022499999999997 0.9569165039062499 2.1022499999999997 Q 0.94416650390625 2.1022499999999997 0.93554150390625 2.09325 Q 0.92691650390625 2.08425 0.92691650390625 2.0715 L 0.92691650390625 1.8622499999999997 Q 0.92691650390625 1.8337499999999998 0.91829150390625 1.8108749999999998 Q 0.90966650390625 1.7879999999999998 0.8897915039062501 1.7741249999999997 Q 0.86991650390625 1.7602499999999996 0.83541650390625 1.7602499999999996 Q 0.80391650390625 1.7602499999999996 0.77766650390625 1.7741249999999997 Q 0.75141650390625 1.7879999999999998 0.73566650390625 1.8108749999999998 Q 0.7199165039062501 1.8337499999999998 0.7199165039062501 1.8622499999999997 L 0.7199165039062501 2.0715 Q 0.7199165039062501 2.08425 0.71129150390625 2.09325 Q 0.7026665039062501 2.1022499999999997 0.68991650390625 2.1022499999999997 Q 0.67716650390625 2.1022499999999997 0.66854150390625 2.09325 Q 0.65991650390625 2.08425 0.65991650390625 2.0715 L 0.65991650390625 1.7444999999999997 Q 0.65991650390625 1.7317499999999997 0.66854150390625 1.7231249999999998 Q 0.67716650390625 1.7144999999999997 0.68991650390625 1.7144999999999997 Q 0.70341650390625 1.7144999999999997 0.71166650390625 1.7231249999999998 Q 0.7199165039062501 1.7317499999999997 0.7199165039062501 1.7444999999999997 L 0.7199165039062501 1.7977499999999997 L 0.70491650390625 1.8142499999999997 Q 0.70866650390625 1.7947499999999996 0.72216650390625 1.7748749999999998 Q 0.73566650390625 1.7549999999999997 0.75591650390625 1.7392499999999997 Q 0.77616650390625 1.7234999999999996 0.80091650390625 1.7141249999999997 Q 0.8256665039062501 1.7047499999999998 0.85266650390625 1.7047499999999998 Z M 1.42115478515625 1.5472499999999996 Q 1.43465478515625 1.5472499999999996 1.44290478515625 1.5558749999999997 Q 1.45115478515625 1.5644999999999998 1.45115478515625 1.5772499999999998 L 1.45115478515625 2.0715 Q 1.45115478515625 2.08425 1.44252978515625 2.09325 Q 1.4339047851562499 2.1022499999999997 1.42115478515625 2.1022499999999997 Q 1.40840478515625 2.1022499999999997 1.39977978515625 2.09325 Q 1.39115478515625 2.08425 1.39115478515625 2.0715 L 1.39115478515625 2.00025 L 1.40540478515625 1.9949999999999997 Q 1.40540478515625 2.013 1.39452978515625 2.0328749999999998 Q 1.38365478515625 2.0527499999999996 1.3637797851562499 2.07 Q 1.34390478515625 2.0872499999999996 1.31765478515625 2.0984999999999996 Q 1.29140478515625 2.1097499999999996 1.26065478515625 2.1097499999999996 Q 1.20965478515625 2.1097499999999996 1.16915478515625 2.0835 Q 1.12865478515625 2.05725 1.10502978515625 2.0115 Q 1.08140478515625 1.9657499999999997 1.08140478515625 1.9072499999999997 Q 1.08140478515625 1.8479999999999996 1.10502978515625 1.8022499999999997 Q 1.12865478515625 1.7564999999999997 1.16877978515625 1.7306249999999999 Q 1.20890478515625 1.7047499999999998 1.25915478515625 1.7047499999999998 Q 1.29065478515625 1.7047499999999998 1.31802978515625 1.7152499999999997 Q 1.34540478515625 1.7257499999999997 1.36640478515625 1.7437499999999997 Q 1.3874047851562499 1.7617499999999997 1.3990297851562499 1.7834999999999996 Q 1.4106547851562499 1.8052499999999998 1.4106547851562499 1.8269999999999997 L 1.39115478515625 1.8224999999999998 L 1.39115478515625 1.5772499999999998 Q 1.39115478515625 1.5644999999999998 1.39977978515625 1.5558749999999997 Q 1.40840478515625 1.5472499999999996 1.42115478515625 1.5472499999999996 Z M 1.26665478515625 2.0542499999999997 Q 1.3049047851562499 2.0542499999999997 1.33340478515625 2.035125 Q 1.36190478515625 2.0159999999999996 1.37840478515625 1.9826249999999996 Q 1.39490478515625 1.9492499999999997 1.39490478515625 1.9072499999999997 Q 1.39490478515625 1.8644999999999996 1.37840478515625 1.8314999999999997 Q 1.36190478515625 1.7984999999999998 1.33302978515625 1.7793749999999997 Q 1.30415478515625 1.7602499999999996 1.26665478515625 1.7602499999999996 Q 1.22990478515625 1.7602499999999996 1.20102978515625 1.7793749999999997 Q 1.17215478515625 1.7984999999999998 1.15565478515625 1.8314999999999997 Q 1.13915478515625 1.8644999999999996 1.13915478515625 1.9072499999999997 Q 1.13915478515625 1.9484999999999997 1.15565478515625 1.9818749999999998 Q 1.17215478515625 2.0152499999999995 1.20102978515625 2.03475 Q 1.22990478515625 2.0542499999999997 1.26665478515625 2.0542499999999997 Z M 2.0735881347656253 1.7084999999999997 Q 2.086338134765625 1.7084999999999997 2.0949631347656252 1.7171249999999998 Q 2.103588134765625 1.7257499999999997 2.103588134765625 1.7384999999999997 L 2.103588134765625 2.0654999999999997 Q 2.103588134765625 2.1285 2.078838134765625 2.1701249999999996 Q 2.054088134765625 2.21175 2.012463134765625 2.2319999999999998 Q 1.970838134765625 2.2522499999999996 1.9183381347656252 2.2522499999999996 Q 1.889088134765625 2.2522499999999996 1.862088134765625 2.24625 Q 1.8350881347656252 2.2402499999999996 1.8178381347656252 2.2304999999999997 Q 1.803588134765625 2.22375 1.797963134765625 2.2136249999999995 Q 1.792338134765625 2.2034999999999996 1.796088134765625 2.1922499999999996 Q 1.801338134765625 2.1787499999999995 1.8114631347656251 2.1734999999999998 Q 1.821588134765625 2.1682499999999996 1.832838134765625 2.1734999999999998 Q 1.844838134765625 2.1787499999999995 1.867713134765625 2.188125 Q 1.890588134765625 2.1975 1.919088134765625 2.1975 Q 1.9580881347656252 2.1975 1.985838134765625 2.1824999999999997 Q 2.0135881347656253 2.1674999999999995 2.028588134765625 2.1386249999999998 Q 2.043588134765625 2.1097499999999996 2.043588134765625 2.0669999999999997 L 2.043588134765625 2.01375 L 2.052588134765625 2.0324999999999998 Q 2.040588134765625 2.0557499999999997 2.020338134765625 2.0729999999999995 Q 2.000088134765625 2.0902499999999997 1.973838134765625 2.0999999999999996 Q 1.947588134765625 2.1097499999999996 1.9160881347656251 2.1097499999999996 Q 1.873338134765625 2.1097499999999996 1.843713134765625 2.0913749999999998 Q 1.814088134765625 2.0729999999999995 1.798713134765625 2.0403749999999996 Q 1.7833381347656252 2.0077499999999997 1.7833381347656252 1.9649999999999996 L 1.7833381347656252 1.7384999999999997 Q 1.7833381347656252 1.7257499999999997 1.791963134765625 1.7171249999999998 Q 1.8005881347656252 1.7084999999999997 1.813338134765625 1.7084999999999997 Q 1.826838134765625 1.7084999999999997 1.8350881347656252 1.7171249999999998 Q 1.843338134765625 1.7257499999999997 1.843338134765625 1.7384999999999997 L 1.843338134765625 1.9514999999999998 Q 1.843338134765625 2.0024999999999995 1.865838134765625 2.0283749999999996 Q 1.8883381347656252 2.0542499999999997 1.9355881347656252 2.0542499999999997 Q 1.9655881347656252 2.0542499999999997 1.989963134765625 2.0407499999999996 Q 2.0143381347656253 2.0272499999999996 2.028963134765625 2.0036249999999995 Q 2.043588134765625 1.9799999999999998 2.043588134765625 1.9514999999999998 L 2.043588134765625 1.7384999999999997 Q 2.043588134765625 1.7257499999999997 2.051838134765625 1.7171249999999998 Q 2.0600881347656252 1.7084999999999997 2.0735881347656253 1.7084999999999997 Z M 2.5827978515625 1.9072499999999997 Q 2.5827978515625 1.9657499999999997 2.5572978515625 2.0115 Q 2.5317978515624997 2.05725 2.4879228515625 2.0835 Q 2.4440478515625 2.1097499999999996 2.3885478515625 2.1097499999999996 Q 2.3337978515624997 2.1097499999999996 2.2899228515625 2.0835 Q 2.2460478515625 2.05725 2.2201728515625 2.0115 Q 2.1942978515625 1.9657499999999997 2.1942978515625 1.9072499999999997 Q 2.1942978515625 1.8487499999999997 2.2201728515625 1.8029999999999997 Q 2.2460478515625 1.7572499999999998 2.2899228515625 1.7309999999999997 Q 2.3337978515624997 1.7047499999999998 2.3885478515625 1.7047499999999998 Q 2.4440478515625 1.7047499999999998 2.4879228515625 1.7309999999999997 Q 2.5317978515624997 1.7572499999999998 2.5572978515625 1.8029999999999997 Q 2.5827978515625 1.8487499999999997 2.5827978515625 1.9072499999999997 Z M 2.5227978515625 1.9072499999999997 Q 2.5227978515625 1.8637499999999998 2.5051728515625 1.8307499999999997 Q 2.4875478515625 1.7977499999999997 2.4571728515625 1.7789999999999997 Q 2.4267978515625 1.7602499999999996 2.3885478515625 1.7602499999999996 Q 2.3510478515625 1.7602499999999996 2.3202978515625 1.7789999999999997 Q 2.2895478515625 1.7977499999999997 2.2719228515625 1.8307499999999997 Q 2.2542978515625 1.8637499999999998 2.2542978515625 1.9072499999999997 Q 2.2542978515625 1.9499999999999997 2.2719228515625 1.9829999999999997 Q 2.2895478515625 2.0159999999999996 2.3202978515625 2.035125 Q 2.3510478515625 2.0542499999999997 2.3885478515625 2.0542499999999997 Q 2.4267978515625 2.0542499999999997 2.4571728515625 2.035125 Q 2.4875478515625 2.0159999999999996 2.5051728515625 1.9829999999999997 Q 2.5227978515625 1.9499999999999997 2.5227978515625 1.9072499999999997 Z M 2.9675401611328125 1.7144999999999997 Q 2.981040161132812 1.7144999999999997 2.9892901611328124 1.7231249999999998 Q 2.9975401611328123 1.7317499999999997 2.9975401611328123 1.7444999999999997 L 2.9975401611328123 1.9492499999999997 Q 2.9975401611328123 2.025 2.9551651611328125 2.0666249999999997 Q 2.912790161132812 2.1082499999999995 2.8370401611328124 2.1082499999999995 Q 2.7620401611328123 2.1082499999999995 2.7196651611328124 2.0666249999999997 Q 2.677290161132812 2.025 2.677290161132812 1.9492499999999997 L 2.677290161132812 1.7444999999999997 Q 2.677290161132812 1.7317499999999997 2.6859151611328125 1.7231249999999998 Q 2.6945401611328124 1.7144999999999997 2.7072901611328124 1.7144999999999997 Q 2.7207901611328125 1.7144999999999997 2.7290401611328123 1.7231249999999998 Q 2.737290161132812 1.7317499999999997 2.737290161132812 1.7444999999999997 L 2.737290161132812 1.9492499999999997 Q 2.737290161132812 2.00025 2.7635401611328123 2.0264999999999995 Q 2.7897901611328124 2.0527499999999996 2.8370401611328124 2.0527499999999996 Q 2.885790161132812 2.0527499999999996 2.911665161132812 2.0264999999999995 Q 2.9375401611328122 2.00025 2.9375401611328122 1.9492499999999997 L 2.9375401611328122 1.7444999999999997 Q 2.9375401611328122 1.7317499999999997 2.946165161132812 1.7231249999999998 Q 2.9547901611328125 1.7144999999999997 2.9675401611328125 1.7144999999999997 Z M 3.1460035400390622 2.1022499999999997 Q 3.133253540039062 2.1022499999999997 3.1246285400390623 2.09325 Q 3.116003540039062 2.08425 3.116003540039062 2.0715 L 3.116003540039062 1.7444999999999997 Q 3.116003540039062 1.7317499999999997 3.1246285400390623 1.7231249999999998 Q 3.133253540039062 1.7144999999999997 3.1460035400390622 1.7144999999999997 Q 3.1595035400390623 1.7144999999999997 3.167753540039062 1.7231249999999998 Q 3.176003540039062 1.7317499999999997 3.176003540039062 1.7444999999999997 L 3.176003540039062 1.8434999999999997 L 3.167003540039062 1.8277499999999998 Q 3.1715035400390623 1.8044999999999998 3.1831285400390623 1.7823749999999996 Q 3.1947535400390623 1.7602499999999996 3.212753540039062 1.7426249999999996 Q 3.2307535400390623 1.7249999999999996 3.2540035400390623 1.7148749999999997 Q 3.2772535400390623 1.7047499999999998 3.305003540039062 1.7047499999999998 Q 3.3215035400390622 1.7047499999999998 3.335378540039062 1.7126249999999996 Q 3.349253540039062 1.7204999999999997 3.349253540039062 1.7347499999999998 Q 3.349253540039062 1.7504999999999997 3.341003540039062 1.7579999999999998 Q 3.332753540039062 1.7654999999999998 3.3222535400390623 1.7654999999999998 Q 3.312503540039062 1.7654999999999998 3.303503540039062 1.7613749999999997 Q 3.294503540039062 1.7572499999999998 3.281003540039062 1.7572499999999998 Q 3.262253540039062 1.7572499999999998 3.243878540039062 1.7673749999999997 Q 3.225503540039062 1.7774999999999999 3.210128540039062 1.7962499999999997 Q 3.1947535400390623 1.8149999999999997 3.185378540039062 1.8386249999999997 Q 3.176003540039062 1.8622499999999997 3.176003540039062 1.8892499999999997 L 3.176003540039062 2.0715 Q 3.176003540039062 2.08425 3.167378540039062 2.09325 Q 3.1587535400390623 2.1022499999999997 3.1460035400390622 2.1022499999999997 Z M 3.8134310302734367 2.1097499999999996 Q 3.7534310302734366 2.1097499999999996 3.7084310302734367 2.08425 Q 3.6634310302734368 2.05875 3.6386810302734367 2.014125 Q 3.6139310302734367 1.9694999999999998 3.6139310302734367 1.9109999999999998 Q 3.6139310302734367 1.8457499999999998 3.6398060302734367 1.7996249999999998 Q 3.665681030273437 1.7534999999999998 3.7069310302734366 1.7291249999999998 Q 3.748181030273437 1.7047499999999998 3.794681030273437 1.7047499999999998 Q 3.829931030273437 1.7047499999999998 3.8618060302734367 1.7174999999999998 Q 3.893681030273437 1.7302499999999998 3.9188060302734367 1.7546249999999997 Q 3.9439310302734367 1.7789999999999997 3.958931030273437 1.8131249999999997 Q 3.973931030273437 1.8472499999999998 3.9746810302734366 1.8892499999999997 Q 3.973931030273437 1.9012499999999997 3.9649310302734366 1.9094999999999998 Q 3.9559310302734367 1.9177499999999998 3.9439310302734367 1.9177499999999998 L 3.6476810302734366 1.9177499999999998 L 3.634181030273437 1.8659999999999997 L 3.922931030273437 1.8659999999999997 L 3.910931030273437 1.8764999999999996 L 3.910931030273437 1.8599999999999997 Q 3.9086810302734367 1.8292499999999996 3.891056030273437 1.8071249999999996 Q 3.8734310302734367 1.7849999999999997 3.8479310302734366 1.7729999999999997 Q 3.822431030273437 1.7609999999999997 3.794681030273437 1.7609999999999997 Q 3.772181030273437 1.7609999999999997 3.750056030273437 1.7688749999999998 Q 3.727931030273437 1.7767499999999998 3.7103060302734368 1.7943749999999996 Q 3.692681030273437 1.8119999999999998 3.682181030273437 1.8397499999999998 Q 3.6716810302734366 1.8674999999999997 3.6716810302734366 1.9064999999999996 Q 3.6716810302734366 1.9499999999999997 3.689306030273437 1.9829999999999997 Q 3.7069310302734366 2.0159999999999996 3.738431030273437 2.035125 Q 3.769931030273437 2.0542499999999997 3.8111810302734366 2.0542499999999997 Q 3.8381810302734367 2.0542499999999997 3.8576810302734366 2.0475 Q 3.877181030273437 2.0407499999999996 3.891056030273437 2.0306249999999997 Q 3.9049310302734366 2.0204999999999997 3.914681030273437 2.01 Q 3.924431030273437 2.0032499999999995 3.934181030273437 2.0032499999999995 Q 3.9446810302734368 2.0032499999999995 3.9521810302734366 2.01075 Q 3.959681030273437 2.0182499999999997 3.959681030273437 2.0287499999999996 Q 3.959681030273437 2.0414999999999996 3.947681030273437 2.0512499999999996 Q 3.925931030273437 2.0744999999999996 3.890306030273437 2.092125 Q 3.854681030273437 2.1097499999999996 3.8134310302734367 2.1097499999999996 Z M 4.134404663085937 2.0715 Q 4.134404663085937 2.08425 4.125404663085937 2.09325 Q 4.116404663085937 2.1022499999999997 4.103654663085937 2.1022499999999997 Q 4.090904663085937 2.1022499999999997 4.082654663085937 2.09325 Q 4.074404663085937 2.08425 4.074404663085937 2.0715 L 4.074404663085937 1.5772499999999998 Q 4.074404663085937 1.5644999999999998 4.083029663085937 1.5558749999999997 Q 4.091654663085937 1.5472499999999996 4.104404663085937 1.5472499999999996 Q 4.1179046630859375 1.5472499999999996 4.126154663085937 1.5558749999999997 Q 4.134404663085937 1.5644999999999998 4.134404663085937 1.5772499999999998 L 4.134404663085937 2.0715 Z M 4.315890380859375 2.0715 Q 4.315890380859375 2.08425 4.307265380859375 2.09325 Q 4.298640380859375 2.1022499999999997 4.2858903808593745 2.1022499999999997 Q 4.272390380859375 2.1022499999999997 4.2641403808593745 2.09325 Q 4.255890380859375 2.08425 4.255890380859375 2.0715 L 4.255890380859375 1.7384999999999997 Q 4.255890380859375 1.7257499999999997 4.2645153808593745 1.7171249999999998 Q 4.273140380859375 1.7084999999999997 4.2858903808593745 1.7084999999999997 Q 4.298640380859375 1.7084999999999997 4.307265380859375 1.7171249999999998 Q 4.315890380859375 1.7257499999999997 4.315890380859375 1.7384999999999997 L 4.315890380859375 2.0715 Z M 4.2858903808593745 1.6582499999999998 Q 4.267140380859375 1.6582499999999998 4.258140380859375 1.6507499999999997 Q 4.249140380859375 1.6432499999999997 4.249140380859375 1.6274999999999997 L 4.249140380859375 1.6169999999999998 Q 4.249140380859375 1.6012499999999998 4.258890380859375 1.5937499999999996 Q 4.268640380859375 1.5862499999999997 4.2866403808593745 1.5862499999999997 Q 4.304640380859375 1.5862499999999997 4.313640380859375 1.5937499999999996 Q 4.322640380859375 1.6012499999999998 4.322640380859375 1.6169999999999998 L 4.322640380859375 1.6274999999999997 Q 4.322640380859375 1.6432499999999997 4.313265380859375 1.6507499999999997 Q 4.303890380859375 1.6582499999999998 4.2858903808593745 1.6582499999999998 Z M 4.590350830078125 1.7047499999999998 Q 4.623350830078125 1.7047499999999998 4.651100830078125 1.7156249999999997 Q 4.678850830078125 1.7264999999999997 4.699475830078125 1.7437499999999997 Q 4.720100830078125 1.7609999999999997 4.731725830078125 1.7797499999999997 Q 4.743350830078125 1.7984999999999998 4.743350830078125 1.8149999999999997 L 4.728350830078125 1.8059999999999996 L 4.728350830078125 1.7407499999999998 Q 4.728350830078125 1.7279999999999998 4.7369758300781255 1.7193749999999997 Q 4.745600830078125 1.7107499999999998 4.758350830078125 1.7107499999999998 Q 4.771850830078125 1.7107499999999998 4.780100830078125 1.7193749999999997 Q 4.788350830078125 1.7279999999999998 4.788350830078125 1.7407499999999998 L 4.788350830078125 2.06925 Q 4.788350830078125 2.13075 4.762475830078126 2.1712499999999997 Q 4.7366008300781255 2.21175 4.693100830078125 2.2319999999999998 Q 4.649600830078125 2.2522499999999996 4.5963508300781255 2.2522499999999996 Q 4.5738508300781255 2.2522499999999996 4.546475830078125 2.24625 Q 4.519100830078125 2.2402499999999996 4.498100830078125 2.2316249999999997 Q 4.477100830078125 2.223 4.471850830078125 2.2139999999999995 Q 4.460600830078125 2.2064999999999997 4.457975830078125 2.1971249999999998 Q 4.4553508300781255 2.18775 4.460600830078125 2.1794999999999995 Q 4.468100830078125 2.1689999999999996 4.4786008300781255 2.1689999999999996 Q 4.489100830078125 2.1689999999999996 4.505600830078125 2.17575 Q 4.513100830078125 2.178 4.5273508300781256 2.1832499999999997 Q 4.541600830078125 2.1885 4.560350830078125 2.1926249999999996 Q 4.579100830078125 2.1967499999999998 4.5971008300781255 2.1967499999999998 Q 4.660850830078125 2.1967499999999998 4.694600830078125 2.163375 Q 4.728350830078125 2.13 4.728350830078125 2.0752499999999996 L 4.728350830078125 2.0054999999999996 L 4.7366008300781255 2.0092499999999998 Q 4.732100830078125 2.0302499999999997 4.718600830078125 2.04825 Q 4.705100830078125 2.0662499999999997 4.685225830078125 2.080125 Q 4.6653508300781255 2.094 4.640975830078125 2.1018749999999997 Q 4.616600830078125 2.1097499999999996 4.591850830078125 2.1097499999999996 Q 4.539350830078125 2.1097499999999996 4.497725830078125 2.0835 Q 4.4561008300781255 2.05725 4.4317258300781255 2.0115 Q 4.4073508300781254 1.9657499999999997 4.4073508300781254 1.9072499999999997 Q 4.4073508300781254 1.8479999999999996 4.4317258300781255 1.8022499999999997 Q 4.4561008300781255 1.7564999999999997 4.497350830078125 1.7306249999999999 Q 4.538600830078125 1.7047499999999998 4.590350830078125 1.7047499999999998 Z M 4.598600830078125 1.7602499999999996 Q 4.559600830078125 1.7602499999999996 4.529600830078125 1.7793749999999997 Q 4.499600830078125 1.7984999999999998 4.482350830078125 1.8314999999999997 Q 4.465100830078125 1.8644999999999996 4.465100830078125 1.9072499999999997 Q 4.465100830078125 1.9484999999999997 4.482350830078125 1.9818749999999998 Q 4.499600830078125 2.0152499999999995 4.529600830078125 2.03475 Q 4.559600830078125 2.0542499999999997 4.598600830078125 2.0542499999999997 Q 4.637600830078125 2.0542499999999997 4.6676008300781255 2.035125 Q 4.697600830078125 2.0159999999999996 4.7148508300781256 1.9829999999999997 Q 4.732100830078125 1.9499999999999997 4.732100830078125 1.9072499999999997 Q 4.732100830078125 1.8637499999999998 4.7148508300781256 1.8307499999999997 Q 4.697600830078125 1.7977499999999997 4.6676008300781255 1.7789999999999997 Q 4.637600830078125 1.7602499999999996 4.598600830078125 1.7602499999999996 Z M 4.964572631835938 2.0715 Q 4.964572631835938 2.08425 4.955947631835938 2.09325 Q 4.947322631835938 2.1022499999999997 4.9345726318359375 2.1022499999999997 Q 4.921072631835938 2.1022499999999997 4.912822631835938 2.09325 Q 4.904572631835938 2.08425 4.904572631835938 2.0715 L 4.904572631835938 1.7384999999999997 Q 4.904572631835938 1.7257499999999997 4.913197631835938 1.7171249999999998 Q 4.921822631835938 1.7084999999999997 4.9345726318359375 1.7084999999999997 Q 4.947322631835938 1.7084999999999997 4.955947631835938 1.7171249999999998 Q 4.964572631835938 1.7257499999999997 4.964572631835938 1.7384999999999997 L 4.964572631835938 2.0715 Z M 4.9345726318359375 1.6582499999999998 Q 4.915822631835938 1.6582499999999998 4.906822631835938 1.6507499999999997 Q 4.897822631835938 1.6432499999999997 4.897822631835938 1.6274999999999997 L 4.897822631835938 1.6169999999999998 Q 4.897822631835938 1.6012499999999998 4.907572631835938 1.5937499999999996 Q 4.917322631835938 1.5862499999999997 4.935322631835938 1.5862499999999997 Q 4.953322631835938 1.5862499999999997 4.962322631835938 1.5937499999999996 Q 4.971322631835938 1.6012499999999998 4.971322631835938 1.6169999999999998 L 4.971322631835938 1.6274999999999997 Q 4.971322631835938 1.6432499999999997 4.961947631835938 1.6507499999999997 Q 4.952572631835938 1.6582499999999998 4.9345726318359375 1.6582499999999998 Z M 5.271283081054688 1.7047499999999998 Q 5.322283081054688 1.7047499999999998 5.362783081054689 1.7306249999999999 Q 5.403283081054688 1.7564999999999997 5.426908081054688 1.8014999999999997 Q 5.450533081054688 1.8464999999999998 5.450533081054688 1.9057499999999998 Q 5.450533081054688 1.9649999999999996 5.426908081054688 2.01075 Q 5.403283081054688 2.0564999999999998 5.363158081054689 2.083125 Q 5.323033081054688 2.1097499999999996 5.272783081054688 2.1097499999999996 Q 5.245033081054689 2.1097499999999996 5.2206580810546885 2.1011249999999997 Q 5.1962830810546885 2.0925 5.176408081054689 2.0778749999999997 Q 5.156533081054688 2.0632499999999996 5.143033081054688 2.045625 Q 5.129533081054689 2.0279999999999996 5.123533081054688 2.01075 L 5.140033081054688 2.00025 L 5.140033081054688 2.0752499999999996 Q 5.140033081054688 2.0879999999999996 5.131783081054688 2.0969999999999995 Q 5.123533081054688 2.106 5.110033081054688 2.106 Q 5.097283081054688 2.106 5.088658081054688 2.0973749999999995 Q 5.0800330810546885 2.0887499999999997 5.0800330810546885 2.0752499999999996 L 5.0800330810546885 1.5779999999999998 Q 5.0800330810546885 1.5652499999999998 5.088658081054688 1.5562499999999997 Q 5.097283081054688 1.5472499999999996 5.110033081054688 1.5472499999999996 Q 5.123533081054688 1.5472499999999996 5.131783081054688 1.5562499999999997 Q 5.140033081054688 1.5652499999999998 5.140033081054688 1.5779999999999998 L 5.140033081054688 1.8089999999999997 L 5.128783081054689 1.8029999999999997 Q 5.134033081054688 1.7842499999999997 5.147158081054688 1.7666249999999997 Q 5.160283081054688 1.7489999999999997 5.179408081054688 1.7351249999999996 Q 5.198533081054689 1.7212499999999997 5.222158081054689 1.7129999999999996 Q 5.245783081054689 1.7047499999999998 5.271283081054688 1.7047499999999998 Z M 5.264533081054688 1.7602499999999996 Q 5.227033081054688 1.7602499999999996 5.198158081054689 1.7789999999999997 Q 5.169283081054688 1.7977499999999997 5.153158081054688 1.8307499999999997 Q 5.137033081054688 1.8637499999999998 5.137033081054688 1.9057499999999998 Q 5.137033081054688 1.9477499999999996 5.153158081054688 1.9814999999999998 Q 5.169283081054688 2.0152499999999995 5.198158081054689 2.03475 Q 5.227033081054688 2.0542499999999997 5.264533081054688 2.0542499999999997 Q 5.302033081054688 2.0542499999999997 5.330533081054688 2.03475 Q 5.3590330810546885 2.0152499999999995 5.375533081054688 1.9814999999999998 Q 5.392033081054688 1.9477499999999996 5.392033081054688 1.9057499999999998 Q 5.392033081054688 1.8637499999999998 5.375533081054688 1.8307499999999997 Q 5.3590330810546885 1.7977499999999997 5.330533081054688 1.7789999999999997 Q 5.302033081054688 1.7602499999999996 5.264533081054688 1.7602499999999996 Z M 5.610243896484376 2.0715 Q 5.610243896484376 2.08425 5.601243896484376 2.09325 Q 5.592243896484376 2.1022499999999997 5.579493896484376 2.1022499999999997 Q 5.566743896484376 2.1022499999999997 5.558493896484376 2.09325 Q 5.550243896484376 2.08425 5.550243896484376 2.0715 L 5.550243896484376 1.5772499999999998 Q 5.550243896484376 1.5644999999999998 5.558868896484376 1.5558749999999997 Q 5.567493896484376 1.5472499999999996 5.580243896484376 1.5472499999999996 Q 5.593743896484376 1.5472499999999996 5.601993896484376 1.5558749999999997 Q 5.610243896484376 1.5644999999999998 5.610243896484376 1.5772499999999998 L 5.610243896484376 2.0715 Z M 5.901972290039064 2.1097499999999996 Q 5.841972290039064 2.1097499999999996 5.796972290039064 2.08425 Q 5.751972290039064 2.05875 5.727222290039064 2.014125 Q 5.702472290039064 1.9694999999999998 5.702472290039064 1.9109999999999998 Q 5.702472290039064 1.8457499999999998 5.728347290039064 1.7996249999999998 Q 5.754222290039063 1.7534999999999998 5.795472290039064 1.7291249999999998 Q 5.836722290039064 1.7047499999999998 5.883222290039064 1.7047499999999998 Q 5.918472290039063 1.7047499999999998 5.950347290039064 1.7174999999999998 Q 5.982222290039064 1.7302499999999998 6.007347290039064 1.7546249999999997 Q 6.032472290039064 1.7789999999999997 6.047472290039064 1.8131249999999997 Q 6.0624722900390635 1.8472499999999998 6.0632222900390635 1.8892499999999997 Q 6.0624722900390635 1.9012499999999997 6.053472290039064 1.9094999999999998 Q 6.044472290039064 1.9177499999999998 6.032472290039064 1.9177499999999998 L 5.736222290039064 1.9177499999999998 L 5.722722290039064 1.8659999999999997 L 6.011472290039064 1.8659999999999997 L 5.999472290039064 1.8764999999999996 L 5.999472290039064 1.8599999999999997 Q 5.997222290039064 1.8292499999999996 5.979597290039064 1.8071249999999996 Q 5.961972290039064 1.7849999999999997 5.936472290039064 1.7729999999999997 Q 5.910972290039064 1.7609999999999997 5.883222290039064 1.7609999999999997 Q 5.860722290039064 1.7609999999999997 5.838597290039064 1.7688749999999998 Q 5.816472290039064 1.7767499999999998 5.798847290039064 1.7943749999999996 Q 5.7812222900390635 1.8119999999999998 5.770722290039064 1.8397499999999998 Q 5.760222290039064 1.8674999999999997 5.760222290039064 1.9064999999999996 Q 5.760222290039064 1.9499999999999997 5.777847290039063 1.9829999999999997 Q 5.795472290039064 2.0159999999999996 5.8269722900390635 2.035125 Q 5.858472290039064 2.0542499999999997 5.899722290039064 2.0542499999999997 Q 5.926722290039064 2.0542499999999997 5.9462222900390636 2.0475 Q 5.965722290039063 2.0407499999999996 5.979597290039064 2.0306249999999997 Q 5.993472290039064 2.0204999999999997 6.003222290039064 2.01 Q 6.012972290039063 2.0032499999999995 6.022722290039064 2.0032499999999995 Q 6.033222290039064 2.0032499999999995 6.040722290039064 2.01075 Q 6.048222290039064 2.0182499999999997 6.048222290039064 2.0287499999999996 Q 6.048222290039064 2.0414999999999996 6.036222290039063 2.0512499999999996 Q 6.0144722900390635 2.0744999999999996 5.978847290039064 2.092125 Q 5.943222290039063 2.1097499999999996 5.901972290039064 2.1097499999999996 Z M 6.441168457031252 2.12775 Q 6.441168457031252 2.166 6.4242934570312515 2.1929999999999996 Q 6.407418457031252 2.2199999999999998 6.381918457031252 2.235 Q 6.356418457031252 2.2499999999999996 6.3286684570312515 2.2499999999999996 Q 6.315918457031252 2.2499999999999996 6.308043457031252 2.2417499999999997 Q 6.300168457031252 2.2335 6.300168457031252 2.22225 L 6.300168457031252 2.2169999999999996 Q 6.300168457031252 2.2057499999999997 6.307668457031252 2.199 Q 6.315168457031252 2.1922499999999996 6.326418457031252 2.18925 Q 6.343668457031252 2.1847499999999997 6.355668457031252 2.175375 Q 6.367668457031252 2.166 6.374418457031251 2.150625 Q 6.381168457031252 2.1352499999999996 6.381168457031252 2.1142499999999997 L 6.381168457031252 1.7444999999999997 Q 6.381168457031252 1.7317499999999997 6.389793457031252 1.7227499999999998 Q 6.3984184570312514 1.7137499999999997 6.411168457031252 1.7137499999999997 Q 6.424668457031252 1.7137499999999997 6.432918457031252 1.7227499999999998 Q 6.441168457031252 1.7317499999999997 6.441168457031252 1.7444999999999997 L 6.441168457031252 2.12775 Z M 6.411168457031252 1.6582499999999998 Q 6.392418457031252 1.6582499999999998 6.383418457031252 1.6507499999999997 Q 6.374418457031251 1.6432499999999997 6.374418457031251 1.6274999999999997 L 6.374418457031251 1.6169999999999998 Q 6.374418457031251 1.6012499999999998 6.384168457031252 1.5937499999999996 Q 6.393918457031252 1.5862499999999997 6.411918457031252 1.5862499999999997 Q 6.429918457031252 1.5862499999999997 6.438918457031252 1.5937499999999996 Q 6.4479184570312515 1.6012499999999998 6.4479184570312515 1.6169999999999998 L 6.4479184570312515 1.6274999999999997 Q 6.4479184570312515 1.6432499999999997 6.438543457031252 1.6507499999999997 Q 6.429168457031252 1.6582499999999998 6.411168457031252 1.6582499999999998 Z M 6.946647949218752 1.9072499999999997 Q 6.946647949218752 1.9657499999999997 6.921147949218752 2.0115 Q 6.895647949218752 2.05725 6.851772949218752 2.0835 Q 6.807897949218752 2.1097499999999996 6.752397949218752 2.1097499999999996 Q 6.697647949218752 2.1097499999999996 6.6537729492187525 2.0835 Q 6.609897949218752 2.05725 6.5840229492187525 2.0115 Q 6.558147949218752 1.9657499999999997 6.558147949218752 1.9072499999999997 Q 6.558147949218752 1.8487499999999997 6.5840229492187525 1.8029999999999997 Q 6.609897949218752 1.7572499999999998 6.6537729492187525 1.7309999999999997 Q 6.697647949218752 1.7047499999999998 6.752397949218752 1.7047499999999998 Q 6.807897949218752 1.7047499999999998 6.851772949218752 1.7309999999999997 Q 6.895647949218752 1.7572499999999998 6.921147949218752 1.8029999999999997 Q 6.946647949218752 1.8487499999999997 6.946647949218752 1.9072499999999997 Z M 6.8866479492187525 1.9072499999999997 Q 6.8866479492187525 1.8637499999999998 6.869022949218752 1.8307499999999997 Q 6.851397949218752 1.7977499999999997 6.821022949218752 1.7789999999999997 Q 6.790647949218752 1.7602499999999996 6.752397949218752 1.7602499999999996 Q 6.714897949218752 1.7602499999999996 6.684147949218752 1.7789999999999997 Q 6.6533979492187525 1.7977499999999997 6.635772949218752 1.8307499999999997 Q 6.618147949218752 1.8637499999999998 6.618147949218752 1.9072499999999997 Q 6.618147949218752 1.9499999999999997 6.635772949218752 1.9829999999999997 Q 6.6533979492187525 2.0159999999999996 6.684147949218752 2.035125 Q 6.714897949218752 2.0542499999999997 6.752397949218752 2.0542499999999997 Q 6.790647949218752 2.0542499999999997 6.821022949218752 2.035125 Q 6.851397949218752 2.0159999999999996 6.869022949218752 1.9829999999999997 Q 6.8866479492187525 1.9499999999999997 6.8866479492187525 1.9072499999999997 Z M 7.2323902587890645 1.7047499999999998 Q 7.283390258789065 1.7047499999999998 7.323890258789065 1.7306249999999999 Q 7.364390258789065 1.7564999999999997 7.388015258789065 1.8014999999999997 Q 7.411640258789065 1.8464999999999998 7.411640258789065 1.9057499999999998 Q 7.411640258789065 1.9649999999999996 7.388015258789065 2.01075 Q 7.364390258789065 2.0564999999999998 7.324265258789065 2.083125 Q 7.284140258789065 2.1097499999999996 7.2338902587890646 2.1097499999999996 Q 7.206140258789065 2.1097499999999996 7.181765258789065 2.1011249999999997 Q 7.157390258789065 2.0925 7.137515258789065 2.0778749999999997 Q 7.117640258789065 2.0632499999999996 7.104140258789065 2.045625 Q 7.090640258789065 2.0279999999999996 7.084640258789065 2.01075 L 7.101140258789065 2.00025 L 7.101140258789065 2.0752499999999996 Q 7.101140258789065 2.0879999999999996 7.0928902587890645 2.0969999999999995 Q 7.084640258789065 2.106 7.071140258789065 2.106 Q 7.058390258789065 2.106 7.049765258789065 2.0973749999999995 Q 7.041140258789065 2.0887499999999997 7.041140258789065 2.0752499999999996 L 7.041140258789065 1.5779999999999998 Q 7.041140258789065 1.5652499999999998 7.049765258789065 1.5562499999999997 Q 7.058390258789065 1.5472499999999996 7.071140258789065 1.5472499999999996 Q 7.084640258789065 1.5472499999999996 7.0928902587890645 1.5562499999999997 Q 7.101140258789065 1.5652499999999998 7.101140258789065 1.5779999999999998 L 7.101140258789065 1.8089999999999997 L 7.089890258789065 1.8029999999999997 Q 7.095140258789065 1.7842499999999997 7.108265258789065 1.7666249999999997 Q 7.121390258789065 1.7489999999999997 7.140515258789065 1.7351249999999996 Q 7.159640258789065 1.7212499999999997 7.183265258789065 1.7129999999999996 Q 7.206890258789065 1.7047499999999998 7.2323902587890645 1.7047499999999998 Z M 7.225640258789065 1.7602499999999996 Q 7.188140258789065 1.7602499999999996 7.159265258789065 1.7789999999999997 Q 7.130390258789065 1.7977499999999997 7.1142652587890645 1.8307499999999997 Q 7.098140258789065 1.8637499999999998 7.098140258789065 1.9057499999999998 Q 7.098140258789065 1.9477499999999996 7.1142652587890645 1.9814999999999998 Q 7.130390258789065 2.0152499999999995 7.159265258789065 2.03475 Q 7.188140258789065 2.0542499999999997 7.225640258789065 2.0542499999999997 Q 7.263140258789065 2.0542499999999997 7.291640258789065 2.03475 Q 7.320140258789065 2.0152499999999995 7.336640258789065 1.9814999999999998 Q 7.353140258789065 1.9477499999999996 7.353140258789065 1.9057499999999998 Q 7.353140258789065 1.8637499999999998 7.336640258789065 1.8307499999999997 Q 7.320140258789065 1.7977499999999997 7.291640258789065 1.7789999999999997 Q 7.263140258789065 1.7602499999999996 7.225640258789065 1.7602499999999996 Z M 7.483601074218753 2.0407499999999996 Q 7.476851074218753 2.0309999999999997 7.477601074218753 2.0201249999999997 Q 7.478351074218753 2.0092499999999998 7.4903510742187525 2.001 Q 7.497851074218753 1.9957499999999997 7.507976074218753 1.9964999999999997 Q 7.518101074218753 1.9972499999999997 7.526351074218753 2.0062499999999996 Q 7.547351074218753 2.0309999999999997 7.574351074218753 2.045625 Q 7.601351074218753 2.06025 7.640351074218753 2.06025 Q 7.658351074218753 2.0595 7.676351074218752 2.0542499999999997 Q 7.694351074218753 2.049 7.706726074218753 2.035875 Q 7.719101074218752 2.02275 7.719101074218752 2.001 Q 7.719101074218752 1.9799999999999998 7.706351074218753 1.9676249999999997 Q 7.693601074218753 1.9552499999999997 7.673351074218752 1.9473749999999996 Q 7.653101074218752 1.9394999999999998 7.629101074218752 1.9334999999999998 Q 7.604351074218752 1.9267499999999997 7.580351074218752 1.9181249999999996 Q 7.556351074218752 1.9094999999999998 7.5372260742187525 1.8963749999999997 Q 7.518101074218753 1.8832499999999996 7.506476074218753 1.8633749999999998 Q 7.494851074218753 1.8434999999999997 7.494851074218753 1.8149999999999997 Q 7.494851074218753 1.7812499999999998 7.513226074218752 1.7564999999999997 Q 7.531601074218753 1.7317499999999997 7.5627260742187525 1.7182499999999998 Q 7.593851074218753 1.7047499999999998 7.6306010742187524 1.7047499999999998 Q 7.651601074218752 1.7047499999999998 7.674476074218752 1.7096249999999997 Q 7.697351074218752 1.7144999999999997 7.719101074218752 1.7261249999999997 Q 7.740851074218753 1.7377499999999997 7.757351074218753 1.7579999999999998 Q 7.764101074218753 1.7654999999999998 7.764851074218753 1.7767499999999998 Q 7.765601074218753 1.7879999999999998 7.755101074218753 1.7969999999999997 Q 7.746851074218752 1.8029999999999997 7.736726074218753 1.8022499999999997 Q 7.7266010742187525 1.8014999999999997 7.719851074218752 1.7947499999999996 Q 7.704101074218753 1.7759999999999998 7.680476074218753 1.7658749999999999 Q 7.6568510742187526 1.7557499999999997 7.628351074218752 1.7557499999999997 Q 7.610351074218753 1.7557499999999997 7.593101074218753 1.7609999999999997 Q 7.575851074218753 1.7662499999999997 7.564226074218753 1.7786249999999997 Q 7.552601074218753 1.7909999999999997 7.552601074218753 1.8127499999999999 Q 7.553351074218753 1.8329999999999997 7.566101074218753 1.8457499999999998 Q 7.578851074218752 1.8584999999999998 7.600601074218753 1.8663749999999997 Q 7.622351074218753 1.8742499999999997 7.648601074218753 1.8817499999999998 Q 7.672601074218752 1.8877499999999998 7.694726074218753 1.8956249999999997 Q 7.716851074218753 1.9034999999999997 7.734851074218753 1.9162499999999998 Q 7.752851074218753 1.9289999999999998 7.763351074218753 1.9488749999999997 Q 7.7738510742187525 1.9687499999999998 7.7738510742187525 1.9987499999999998 Q 7.7738510742187525 2.03325 7.754351074218753 2.058375 Q 7.734851074218753 2.0835 7.7029760742187525 2.0966249999999995 Q 7.671101074218753 2.1097499999999996 7.634351074218753 2.1097499999999996 Q 7.593101074218753 2.1097499999999996 7.552976074218753 2.094 Q 7.512851074218752 2.0782499999999997 7.483601074218753 2.0407499999999996 Z" fill="#382d5e" fill-rule="nonzero"></path></g><g clip-path="url(&quot;#SvgjsClipPath1001&quot;)"><path d=" M 1.3300881422973747 -5.361100056823302 L 6.4752621994994985 -5.361100056823302 L 6.4752621994994985 -0.24999999999999956 L 1.3300881422973747 -0.24999999999999956 Z" fill="#382d5e" transform="matrix(1,0,0,1,0,0)" fill-rule="nonzero" mask="url(#maskedText)"></path></g></g><defs><clipPath id="SvgjsClipPath1001"><path d=" M 1.3300881422973747 -5.361100056823302 h 5.145174057202125 v 5.111100056823302 h -5.145174057202125 Z"></path></clipPath><mask id="maskedText"><path d=" M 6.4752621994994985 -2.8055500284116506 C 6.4752621994994985 -1.384749315838119 5.323475883471969 -0.23296299981058866 3.902675170898437 -0.23296299981058866 C 2.481874458324905 -0.23296299981058866 1.3300881422973747 -1.384749315838119 1.3300881422973747 -2.8055500284116506 C 1.3300881422973747 -4.226350740985183 2.481874458324905 -5.378137057012713 3.902675170898437 -5.378137057012713 C 5.323475883471969 -5.378137057012713 6.4752621994994985 -4.226350740985183 6.4752621994994985 -2.8055500284116506 Z" fill="#ffffff" transform="matrix(1,0,0,1,0,0)" fill-rule="nonzero"></path><path d=" M 2.841319275055505 -1.8186046350667908 C 2.8042509034744776 -1.8186046350667908 2.773079772826795 -1.8312415799239594 2.7478058831124583 -1.8565154696382964 C 2.722531993398121 -1.8817893593526334 2.709895048540953 -1.9129604900003156 2.709895048540953 -1.9500288615813433 L 2.709895048540953 -3.6610711952419575 C 2.709895048540953 -3.699824492803941 2.722531993398121 -3.731416854946862 2.7478058831124583 -3.7558482816707213 C 2.773079772826795 -3.7802797083945805 2.8042509034744776 -3.79249542175651 2.841319275055505 -3.79249542175651 L 3.983699090143537 -3.79249542175651 C 4.0224523877055205 -3.79249542175651 4.053623518353203 -3.781122171385058 4.077212482086584 -3.758375670642155 C 4.1008014458199655 -3.7356291698992514 4.112595927686656 -3.7057217337372865 4.112595927686656 -3.6686533621562587 C 4.112595927686656 -3.633269916556187 4.1008014458199655 -3.604626174879938 4.077212482086584 -3.582722137127513 C 4.053623518353203 -3.5608180993750875 4.0224523877055205 -3.549866080498875 3.983699090143537 -3.549866080498875 L 2.9727435015700574 -3.549866080498875 L 2.9727435015700574 -2.935710560440486 L 3.698104136371529 -2.935710560440486 C 3.7368574339335128 -2.935710560440486 3.768028564581195 -2.924337310069034 3.791617528314576 -2.901590809326131 C 3.815206492047957 -2.8788443085832274 3.8270009739146476 -2.84977933541174 3.8270009739146476 -2.814395889811668 C 3.8270009739146476 -2.7790124442115967 3.815206492047957 -2.749947471040109 3.791617528314576 -2.727200970297206 C 3.768028564581195 -2.7044544695543022 3.7368574339335128 -2.693081219182851 3.698104136371529 -2.693081219182851 L 2.9727435015700574 -2.693081219182851 L 2.9727435015700574 -1.9500288615813433 C 2.9727435015700574 -1.9129604900003156 2.960106556712889 -1.8817893593526334 2.934832666998552 -1.8565154696382964 C 2.909558777284215 -1.8312415799239594 2.878387646636533 -1.8186046350667908 2.841319275055505 -1.8186046350667908 Z" fill="NA" transform="matrix(1,0,0,1,0,0)" fill-rule="nonzero"></path><path d=" M 4.804946246278714 -1.8186046350667908 C 4.771247726659598 -1.8186046350667908 4.7417615219928715 -1.8312415799239594 4.716487632278534 -1.8565154696382964 C 4.691213742564197 -1.8817893593526334 4.678576797707029 -1.9121180270098377 4.678576797707029 -1.9475014726099096 L 4.678576797707029 -3.4892087451844658 L 4.494077402792369 -3.4108596870700216 C 4.46543366111612 -3.399065205203331 4.438474845420828 -3.3931679642699857 4.413200955706491 -3.3931679642699857 C 4.376132584125463 -3.3931679642699857 4.3453826849730195 -3.4049624461366763 4.320951258249161 -3.4285514098700576 C 4.296519831525301 -3.452140373603439 4.284304118163372 -3.482469041260643 4.284304118163372 -3.5195374128416708 C 4.284304118163372 -3.546496228536963 4.291043822087195 -3.5709276552608227 4.3045232299348415 -3.592831693013248 C 4.318002637782488 -3.6147357307656733 4.339064212544435 -3.6307425275847534 4.367707954220684 -3.640852083470488 L 4.761980633764341 -3.782385865870775 C 4.77040526366912 -3.7857557178326866 4.778829893573899 -3.7882831068041205 4.787254523478678 -3.789968032785076 C 4.795679153383457 -3.791652958766032 4.803261320297758 -3.79249542175651 4.810001024221581 -3.79249542175651 C 4.848754321783565 -3.79249542175651 4.879504220936008 -3.7802797083945805 4.902250721678911 -3.7558482816707213 C 4.924997222421815 -3.731416854946862 4.936370472793266 -3.699824492803941 4.936370472793266 -3.6610711952419575 L 4.936370472793266 -1.9475014726099096 C 4.936370472793266 -1.9121180270098377 4.923733527936098 -1.8817893593526334 4.898459638221761 -1.8565154696382964 C 4.8731857485074235 -1.8312415799239594 4.842014617859741 -1.8186046350667908 4.804946246278714 -1.8186046350667908 Z" fill="NA" transform="matrix(1,0,0,1,0,0)" fill-rule="nonzero"></path></mask></defs></svg>